<?xml version="1.0" encoding="utf-8"?><svg xmlns="http://www.w3.org/2000/svg" xmlns:xlink="http://www.w3.org/1999/xlink"><symbol viewBox="0 0 284.935 284.936" id="angleLeft" xmlns="http://www.w3.org/2000/svg"><path d="M110.488 142.468L222.694 30.264c1.902-1.903 2.854-4.093 2.854-6.567s-.951-4.664-2.854-6.563L208.417 2.857C206.513.955 204.324 0 201.856 0c-2.475 0-4.664.955-6.567 2.857L62.24 135.9c-1.903 1.903-2.852 4.093-2.852 6.567 0 2.475.949 4.664 2.852 6.567l133.042 133.043c1.906 1.906 4.097 2.857 6.571 2.857 2.471 0 4.66-.951 6.563-2.857l14.277-14.267c1.902-1.903 2.851-4.094 2.851-6.57 0-2.472-.948-4.661-2.851-6.564L110.488 142.468z"/></symbol><symbol viewBox="0 0 284.935 284.936" id="angleRight" xmlns="http://www.w3.org/2000/svg"><path d="M222.701 135.9L89.652 2.857C87.748.955 85.557 0 83.084 0c-2.474 0-4.664.955-6.567 2.857L62.244 17.133c-1.906 1.903-2.855 4.089-2.855 6.567 0 2.478.949 4.664 2.855 6.567l112.204 112.204L62.244 254.677c-1.906 1.903-2.855 4.093-2.855 6.564 0 2.477.949 4.667 2.855 6.57l14.274 14.271c1.903 1.905 4.093 2.854 6.567 2.854 2.473 0 4.663-.951 6.567-2.854l133.042-133.044c1.902-1.902 2.854-4.093 2.854-6.567s-.945-4.664-2.847-6.571z"/></symbol><symbol viewBox="-24 0 480 480.02" id="beer" xmlns="http://www.w3.org/2000/svg"><path d="M64.008 200.012h15.996v16H64.008zm39.996 16h16v16h-16zm40-16h16v16h-16zm-71.996 47.996h15.996v16H72.008zM112.004 24.02c-17.672 0-32 14.324-32 32 0 17.671 14.328 31.996 32 31.996s32-14.325 32-31.996c0-17.676-14.328-32-32-32zm0 47.996c-8.836 0-16-7.16-16-15.996 0-8.84 7.164-16 16-16s16 7.16 16 16c0 8.835-7.164 15.996-16 15.996zM24.008.02c-13.254 0-24 10.746-24 24 0 13.253 10.746 24 24 24s24-10.747 24-24c0-13.254-10.746-24-24-24zm0 32a8 8 0 1 1 0-16.001 8 8 0 0 1 0 16zm0 0"/><path d="M431.992 32.82a8.002 8.002 0 0 0-8-8.8h-1.137C419.22 9.934 406.54.074 391.992.02h-24a31.796 31.796 0 0 0-23.996 11.054c-11.398-13.27-31.39-14.785-44.66-3.39-.602.511-1.18 1.05-1.738 1.609-16.86-14.121-41.97-11.898-56.086 4.96a39.666 39.666 0 0 0-6.024 9.767h-2.351a8.004 8.004 0 0 0-8.043 7.96c0 .278.015.56.043.84l6.984 71.196H72.008a8.003 8.003 0 0 0-7.028 4.168l-6.644 12.191C6.914 214.094 37.46 331.648 128.004 388.477v43.527h-24c-13.254 0-24 10.742-24 23.996s10.746 24 24 24H208c13.254 0 24-10.746 24-24s-10.746-23.996-24-23.996h-32V388.41a202.02 202.02 0 0 0 75.453-86.14l11.914 122.203a12.593 12.593 0 0 1-2.738 8.93L244.152 454c-5.523 6.898-4.41 16.969 2.489 22.488A16.006 16.006 0 0 0 256.645 480h142.699c8.836 0 16-7.164 16-16a16 16 0 0 0-3.504-9.992l-16.48-20.606a12.543 12.543 0 0 1-2.75-8.8zm-64-16.8h24a15.944 15.944 0 0 1 13.778 8h-51.551a15.942 15.942 0 0 1 13.773-8zm-95.996 0a24.012 24.012 0 0 1 19.746 10.398 7.997 7.997 0 0 0 13.856-1.152c3.664-7.957 13.086-11.438 21.043-7.774a15.87 15.87 0 0 1 7.379 6.977 7.881 7.881 0 0 0-6.024 7.55v24a8 8 0 0 1-8 7.997 8 8 0 0 1-8-7.996 8 8 0 0 0-16 0v23.996a8 8 0 0 1-16 0V32.02a8 8 0 0 0-8-8h-17.742a23.772 23.772 0 0 1 17.742-8zm-8 24v39.996c0 13.254 10.746 24 24 24s24-10.746 24-24v-1.368c12.496 4.418 26.207-2.128 30.625-14.625a23.98 23.98 0 0 0 1.375-8.003v-16h71.195l-7.27 71.996H248.966L241.95 40.02zM72.375 128.016l4.383-8h150.297l7.105 14.207c.297.59.504 1.199.8 1.793H68.278a218.137 218.137 0 0 1 4.098-8zm-10.96 24h180.464c2 5.293 3.777 10.629 5.273 15.996H56.215c1.488-5.367 3.2-10.711 5.2-15.996zm105.562 223.187l-3.247 2.05a7.991 7.991 0 0 0-3.726 6.75V440a8 8 0 0 0 8 8H208a8 8 0 0 1 0 16H104.004a8 8 0 0 1 0-16h32a8 8 0 0 0 8-8v-55.996a7.997 7.997 0 0 0-3.879-6.856c-66.652-39.78-101.57-116.789-87.574-193.136h198.39c13.871 74.918-19.414 150.71-83.964 191.191zm215.886 68.2L399.343 464H256.646l16.48-20.598a28.689 28.689 0 0 0 6.184-20.343l-15.313-156.61a201.714 201.714 0 0 0-13.078-134.12l-.39-4.313h155.785l-29.649 295.187a28.62 28.62 0 0 0 6.2 20.2zm0 0"/><path d="M287.996 424.004h79.996V440h-79.996zm71.996-279.988h16v71.996h-16zm0 87.996h16v15.996h-16zm0 0"/></symbol><symbol viewBox="0 0 512 512" id="coins" xmlns="http://www.w3.org/2000/svg"><path d="M336 16c-85.312 0-176 28.032-176 80v64c0 8.832 7.168 16 16 16s16-7.168 16-16v-16.672C225.952 164.736 282.016 176 336 176s110.048-11.264 144-32.672V160c0 15.648-39.36 40.608-113.344 46.784-8.768.704-15.328 8.48-14.592 17.28.672 8.352 7.68 14.656 15.904 14.656.48 0 .896-.032 1.376-.064 41.664-3.488 83.168-14.272 110.656-31.776V224c0 13.664-28.992 33.312-82.784 42.816-8.672 1.536-14.496 9.856-12.96 18.528 1.376 7.744 8.128 13.216 15.712 13.216.928 0 1.888-.064 2.816-.256 32.544-5.728 58.592-15.104 77.216-27.008V288c0 13.664-28.992 33.312-82.784 42.816-8.672 1.536-14.496 9.856-12.96 18.528 1.376 7.744 8.128 13.216 15.712 13.216.928 0 1.888-.064 2.816-.256 32.544-5.728 58.592-15.136 77.216-27.008V352c0 13.664-28.992 33.312-82.784 42.816-8.672 1.536-14.496 9.856-12.96 18.528 1.376 7.744 8.128 13.216 15.712 13.216.928 0 1.888-.064 2.816-.256 32.544-5.728 58.592-15.136 77.216-27.008V416c0 15.648-39.36 40.608-113.344 46.784-8.768.704-15.328 8.48-14.592 17.28.672 8.352 7.68 14.656 15.904 14.656.48 0 .896-.032 1.376-.064C440.352 488.704 512 462.112 512 416V96c0-51.968-90.688-80-176-80zm0 128c-87.904 0-144-28.448-144-48s56.096-48 144-48 144 28.448 144 48-56.096 48-144 48z" data-original="#000000" class="dactive-path" data-old_color="#000000"/><path d="M176 208C90.688 208 0 236.032 0 288v128c0 51.968 90.688 80 176 80s176-28.032 176-80V288c0-51.968-90.688-80-176-80zm144 208c0 19.552-56.096 48-144 48S32 435.552 32 416v-16.672C65.952 420.736 122.016 432 176 432s110.048-11.264 144-32.672V416zm0-64c0 19.552-56.096 48-144 48S32 371.552 32 352v-16.672C65.952 356.736 122.016 368 176 368s110.048-11.264 144-32.672V352zm-144-16c-87.904 0-144-28.448-144-48s56.096-48 144-48 144 28.448 144 48-56.096 48-144 48z" data-original="#000000" class="dactive-path" data-old_color="#000000"/></symbol><symbol viewBox="0 0 82.081 60" id="delivery-truck" xmlns="http://www.w3.org/2000/svg"><defs><style>.ea{fill:#ff9f0f}</style></defs><path class="ea" d="M66.45 19.183h-5.167L62.84 1.306V1.198a1.2 1.2 0 0 0-.725-1.1l-.011-.005a1.353 1.353 0 0 0-.082-.03l-.031-.011-.069-.018-.049-.012-.062-.01-.059-.008H37.034a1.2 1.2 0 1 0 0 2.4h23.3l-2.397 27.475v.006l-.6 6.932H15.553l.7-7.214h7.955a1.2 1.2 0 1 0 0-2.4h-7.723l1.476-15.229h12.661a1.2 1.2 0 1 0 0-2.4H18.194l.694-7.16h13.337a1.2 1.2 0 1 0 0-2.4h-14.43a1.2 1.2 0 0 0-1.173.949v.012c-.006.03-.01.061-.014.091v.035l-.821 8.478H1.2a1.2 1.2 0 1 0 0 2.4h14.345l-1.476 15.22H9.78a1.2 1.2 0 1 0 0 2.4h4.057l-.8 8.292L11.79 50.72v.246c0 .031.008.062.014.092v.027c0 .009.011.045.017.068l.012.048v.013a1.2 1.2 0 0 0 .286.471l.007.007.04.037a1.192 1.192 0 0 0 .279.191.754.754 0 0 0 .064.031l.02.007a.91.91 0 0 0 .092.033h.008c.036.011.072.02.108.027h.014c.035.007.07.012.106.016q.059.006.117.006h5.354a9.152 9.152 0 0 0 18.146 0h19.3a9.152 9.152 0 0 0 18.147 0h5.356c.04 0 .08 0 .119-.006h.021c.031 0 .062-.008.093-.014l.039-.009.07-.018.046-.015.059-.022.049-.021.052-.025.048-.026.049-.03.045-.03.048-.036.039-.032.048-.043.033-.032a.792.792 0 0 0 .048-.053l.025-.029c.018-.022.034-.044.05-.067l.017-.023a.916.916 0 0 0 .055-.091v-.006c.018-.033.035-.067.05-.1 0-.01.007-.021.011-.031l.028-.076c.009-.026.009-.034.014-.051a.75.75 0 0 0 .025-.115l.008-.049c.051-.409.993-7.962 1.413-12.847v-.014c.121-1.408.2-2.594.2-3.32A15.648 15.648 0 0 0 66.45 19.183zm-5.377 2.405h4.919l-.628 7.214h-4.919zM27.415 57.595a6.75 6.75 0 1 1 6.75-6.75 6.758 6.758 0 0 1-6.75 6.75zm37.432 0a6.75 6.75 0 1 1 6.75-6.75 6.757 6.757 0 0 1-6.75 6.75zm13.365-7.953h-4.291a9.152 9.152 0 0 0-18.147 0H36.488a9.152 9.152 0 0 0-18.147 0h-4.03l1.01-10.421h43.116a1.177 1.177 0 0 0 .12-.006h.022c.031 0 .063-.008.093-.014l.039-.01.072-.018.047-.016.06-.022.049-.022.053-.025.049-.027.049-.03.045-.031.047-.035.041-.034.045-.041.036-.036.042-.047.032-.038a.99.99 0 0 0 .038-.052l.028-.04q.018-.027.034-.056c.008-.014.017-.028.024-.043l.028-.058.021-.047c.007-.016.014-.038.021-.058l.017-.052.014-.057c.004-.019.01-.038.013-.057l.009-.057a.972.972 0 0 0 .008-.06v-.008l.6-6.918h6.217c3.684 0 5.345 1.909 7.1 3.93 1.451 1.667 3.072 3.528 5.826 3.982-.346 3.697-.911 8.445-1.164 10.524zm1.374-12.935c-1.787-.364-2.886-1.62-4.218-3.15-1.665-1.913-3.7-4.248-7.6-4.683l.622-7.142a13.246 13.246 0 0 1 11.283 13.082c.003.451-.03 1.105-.087 1.893z"/><path class="ea" d="M27.415 46.436a4.409 4.409 0 1 0 4.409 4.409 4.414 4.414 0 0 0-4.409-4.409zm0 6.413a2 2 0 1 1 2-2 2.006 2.006 0 0 1-2 2zm37.427-6.413a4.409 4.409 0 1 0 4.409 4.409 4.414 4.414 0 0 0-4.409-4.409zm0 6.413a2 2 0 1 1 2-2 2.006 2.006 0 0 1-2 2zm-53.46-33.666H5.504a1.2 1.2 0 0 0 0 2.4h5.878a1.2 1.2 0 0 0 0-2.4z"/></symbol><symbol viewBox="0 0 59.235 60" id="fast-food" xmlns="http://www.w3.org/2000/svg"><defs><style>.fa{fill:#ff9f0f}</style></defs><path class="fa" d="M59.236 41.078v-.949c0-5.511-1.831-9.758-5.441-12.623-3.31-2.627-7.952-3.958-13.8-3.958s-10.488 1.332-13.8 3.958c-3.61 2.865-5.441 7.112-5.441 12.623v.949h2.531v9.431h-2.531v4.746a4.752 4.752 0 0 0 4.746 4.746h28.985a4.752 4.752 0 0 0 4.746-4.746v-4.746H56.7V41.08zm-1.9 11.328v2.848a2.851 2.851 0 0 1-2.848 2.848H25.504a2.851 2.851 0 0 1-2.848-2.848v-2.845h14.366v-1.9H25.188v-1.9h11.338l9.987 7.191 5.593-7.191h2.7v1.9h-2.595v1.9h5.126zm-23.447-5.7h-8.7v-5.632h29.618v5.635H33.889zm15.811 1.9l-3.563 4.581-6.361-4.578zm-26.411-9.43h-.612c.527-11.92 11.008-13.733 17.32-13.733s16.793 1.813 17.32 13.733H23.29z"/><path class="fa" d="M50.516 43.171c-.379.357-.55.5-.964.5s-.584-.145-.963-.5a3.029 3.029 0 0 0-4.529 0c-.379.357-.549.5-.963.5s-.584-.145-.963-.5a3.028 3.028 0 0 0-4.529 0c-.379.357-.549.5-.963.5s-.584-.145-.963-.5a3.028 3.028 0 0 0-4.528 0c-.379.357-.549.5-.963.5s-.584-.145-.963-.5a3.048 3.048 0 0 0-2.264-1.018v1.9c.414 0 .584.145.963.5a3.028 3.028 0 0 0 4.528 0c.379-.357.549-.5.963-.5s.584.145.963.5a3.028 3.028 0 0 0 4.529 0c.379-.357.549-.5.963-.5s.584.145.963.5a3.028 3.028 0 0 0 4.529 0c.379-.357.549-.5.963-.5s.584.145.963.5a3.029 3.029 0 0 0 4.529 0c.379-.357.549-.5.963-.5v-1.9a3.049 3.049 0 0 0-2.264 1.018zm-7.609-15.447h1.899v1.899h-1.899zm-7.594 0h1.899v1.899h-1.899zm3.797 1.899h1.899v1.899H39.11z"/><path class="fa" d="M18.796 13.928V5.1l9.06-3.316L27.203 0 16.897 3.772v10.156H0v8.227h2.753L6.737 60h13.008v-1.9h-11.3L4.662 22.155h30.461v-8.227H18.796zm14.429 6.329H1.899v-4.43h31.326v4.43z"/><path class="fa" d="M7.027 24.823l1.892-.148.149 1.892-1.893.148zm.299 3.784l1.892-.148.149 1.892-1.893.148zm.296 3.786l1.892-.148.149 1.892-1.893.148z"/></symbol><symbol viewBox="0 0 512 512" id="hamburger" xmlns="http://www.w3.org/2000/svg"><path d="M383.071 148.928c-3.905-3.904-10.237-3.904-14.143 0l-20 20c-3.905 3.905-3.905 10.237 0 14.143 3.907 3.906 10.238 3.905 14.143 0l20-20c3.905-3.905 3.905-10.237 0-14.143zm-240 0c-3.905-3.904-10.237-3.904-14.143 0l-20 20c-3.905 3.905-3.905 10.237 0 14.143 3.907 3.906 10.238 3.905 14.143 0l20-20c3.905-3.905 3.905-10.237 0-14.143zm190-40c-3.905-3.904-10.237-3.904-14.143 0l-20 20c-3.905 3.905-3.905 10.237 0 14.143 3.907 3.906 10.238 3.905 14.143 0l20-20c3.905-3.905 3.905-10.237 0-14.143zm-120 0c-3.905-3.904-10.237-3.904-14.143 0l-20 20c-3.905 3.905-3.905 10.237 0 14.143 3.907 3.906 10.238 3.905 14.143 0l20-20c3.905-3.905 3.905-10.237 0-14.143zm50 40c-3.905-3.904-10.237-3.904-14.143 0l-20 20c-3.905 3.905-3.905 10.237 0 14.143 3.907 3.906 10.238 3.905 14.143 0l20-20c3.905-3.905 3.905-10.237 0-14.143z"/><path d="M512 356c0-16.542-13.458-30-30-30h-10v-32.23c.412-.358.832-.701 1.237-1.07 6.491-5.917 20.049-9.7 28.889-9.812 5.522-.069 9.943-4.603 9.873-10.125-.069-5.479-4.532-9.874-9.997-9.874l-.128.001c-8.581.108-19.982 2.386-29.874 7.063V243.74c12.176-4.983 20.271-17.519 18.533-31.435C478.737 117.496 397.686 46 302 46h-92c-95.686 0-176.737 71.496-188.533 166.301-1.733 13.875 6.307 26.437 18.533 31.44v25.771c-9.929-4.498-21.357-6.748-30.131-6.622-5.522.072-9.94 4.608-9.868 10.131.072 5.478 4.535 9.868 9.997 9.868l.134-.001c8.942-.137 22.822 3.599 29.592 9.774.09.083.186.161.277.243V326H30c-16.574 0-30 13.424-30 30 0 14.865 10.87 27.233 25.078 29.589-2.337 6.169-2.505 12.909-.338 19.313C37.134 441.446 71.397 466 110 466h292c38.603 0 72.866-24.554 85.263-61.104 2.165-6.398 1.997-13.135-.339-19.303C500.864 383.301 512 371.17 512 356zM41.313 214.774C51.867 129.959 124.386 66 210 66h92c85.614 0 158.133 63.959 168.687 148.779.722 5.779-3.787 10.811-9.356 11.184-.066.004-.132.01-.198.016a5.866 5.866 0 0 1-.513.021H51.38c-5.89 0-10.82-5.186-10.067-11.226zm371.925 63.146c-21.975-20.039-51.502-20.039-73.477 0-14.349 13.084-32.175 13.084-46.523 0-21.975-20.039-51.502-20.039-73.477 0-14.349 13.084-32.175 13.084-46.523 0-21.975-20.038-51.502-20.04-73.479.002-12.161 11.098-26.73 12.859-39.759 5.053V246h392v37.555c-12.759 7.099-26.953 5.134-38.762-5.635zM452 305.243V326H60v-21.057c5.407 1.871 10.956 2.807 16.5 2.806 12.905 0 25.776-5.048 36.739-15.051 14.348-13.084 32.175-13.084 46.523 0 21.975 20.041 51.503 20.04 73.477 0 14.349-13.084 32.176-13.084 46.523 0 21.975 20.041 51.503 20.04 73.477 0 14.348-13.085 32.175-13.083 46.523 0 15.297 13.952 34.503 18.24 52.238 12.545zm16.32 93.236C458.68 426.902 432.028 446 402 446H110c-30.028 0-56.68-19.098-66.317-47.515C41.608 392.355 46.901 386 53.46 386h405.08c6.583 0 11.842 6.385 9.78 12.479zM482 366H30c-5.514 0-10-4.486-10-10 0-5.521 4.479-10 10-10h452c5.514 0 10 4.486 10 10 0 5.521-4.479 10-10 10z"/></symbol><symbol viewBox="0 0 26.333 34" id="hot" xmlns="http://www.w3.org/2000/svg"><defs><style>.ha{fill:#ff9f0f}</style></defs><path class="ha" d="M3.103 29.105c-.272-.382-.545-.688-.681-.918a14.325 14.325 0 0 1-2.316-5.278v-.153C-.78 15.643 4.193 8.529 5.079 8.988c.136.076.068.229.272 3.289.136 2.371.2 2.83.477 2.907.613.306 1.839-1.53 2.521-2.83a13.712 13.712 0 0 0 1.09-2.983c1.226-5.354.068-8.949.954-9.332.953-.459 3.951 3.212 5.177 7.112a21.093 21.093 0 0 0 1.839 4.054c.817 1.453 1.362 2.142 1.976 2.142a1.727 1.727 0 0 0 1.226-.841c1.567-2.295-1.294-7.19-.886-7.5.477-.306 6.472 5.125 6.608 13 .068 8.108-5.927 14.074-6.267 13.921-.136-.076.2-.841.545-2.677a17.385 17.385 0 0 0 .136-2.142 13.251 13.251 0 0 0-.545-3.366 13.337 13.337 0 0 0-1.431-3.671 11.268 11.268 0 0 0-1.431-1.912c-.477-.535-2.657-2.983-3.338-2.524-.341.229-.068.994.068 3.136 0 .688.2 3.748-.409 3.9-.272.076-.477-.688-1.567-1.683a3.029 3.029 0 0 0-1.5-.841 2.042 2.042 0 0 0-1.226.229c-.272.153-.749.535-1.158 1.989a11.73 11.73 0 0 0-.2 3.748 42.286 42.286 0 0 0 .409 4.819c.136 1.147.477 3.06.477 3.06-2.452-1.836-3.066-2.371-4.36-3.442-.002-.068-1.024-.91-1.433-1.445z"/></symbol><symbol viewBox="0 0 58.325 60" id="like" xmlns="http://www.w3.org/2000/svg"><defs><style>.ia{fill:#ff9f0f}</style></defs><path class="ia" d="M56.575 40.79a7.453 7.453 0 0 0 1.744-4.981 7.653 7.653 0 0 0-1.631-4.316 6.706 6.706 0 0 0-1.593-7.716c-1.995-1.819-5.383-2.635-10.075-2.409a39.376 39.376 0 0 0-6.173.79h-.013c-.627.113-1.292.251-1.97.4-.05-.8.088-2.8 1.568-7.29 1.756-5.343 1.656-9.434-.327-12.168A7.976 7.976 0 0 0 31.719 0a3.151 3.151 0 0 0-2.422 1.1c-1.393 1.619-1.23 4.6-1.054 5.985-1.656 4.442-6.3 15.332-10.226 18.356a1.343 1.343 0 0 0-.2.176 13.479 13.479 0 0 0-2.459 3.689 5.178 5.178 0 0 0-2.484-.627H5.22A5.224 5.224 0 0 0 0 33.899v20.392a5.224 5.224 0 0 0 5.22 5.22h7.654a5.209 5.209 0 0 0 3.011-.954l2.949.351a126.326 126.326 0 0 0 16.725.916c1.493.113 2.9.176 4.2.176a28.152 28.152 0 0 0 5.834-.527c3.839-.816 6.462-2.447 7.792-4.843a7.68 7.68 0 0 0 .853-4.806 8 8 0 0 0 2.848-6.512 8.476 8.476 0 0 0-.511-2.522zM5.22 56.123a1.834 1.834 0 0 1-1.832-1.832V33.89a1.834 1.834 0 0 1 1.832-1.832h7.654a1.834 1.834 0 0 1 1.831 1.832v20.389a1.834 1.834 0 0 1-1.832 1.832H5.22zm48.143-16.8a1.686 1.686 0 0 0-.226 2.045 5.22 5.22 0 0 1 .577 2.1 5.021 5.021 0 0 1-2.359 4.332 1.71 1.71 0 0 0-.577 1.932 4.431 4.431 0 0 1-.339 3.237c-.841 1.506-2.71 2.585-5.546 3.187a33.055 33.055 0 0 1-9.147.276h-.176a123.849 123.849 0 0 1-16.311-.891h-.013L17.98 55.4a5.316 5.316 0 0 0 .113-1.1V33.89a5.308 5.308 0 0 0-.238-1.556 10.487 10.487 0 0 1 2.334-4.3c5.636-4.471 11.136-19.54 11.379-20.192A1.589 1.589 0 0 0 31.644 7a7.841 7.841 0 0 1 .163-3.639 4.5 4.5 0 0 1 3.538 1.695c1.28 1.769 1.23 4.931-.151 9.122-2.108 6.386-2.284 9.749-.615 11.23a2.735 2.735 0 0 0 2.735.489 35.161 35.161 0 0 1 2.183-.439l.163-.038c3.852-.841 10.753-1.355 13.149.828 2.033 1.857.59 4.316.427 4.58a1.678 1.678 0 0 0 .3 2.183 4.753 4.753 0 0 1 1.393 2.923 4.659 4.659 0 0 1-1.566 3.388z"/></symbol><symbol id="logo" viewBox="0 0 194.2 53.4" xmlns="http://www.w3.org/2000/svg"><style>.jst0,.jst2{stroke-miterlimit:10;stroke-width:.5;fill:#ffa400;stroke:#ffa400}.jst2{fill:none;stroke-width:1.5}.jst3{fill:#ffa400}.jst4{font-family:'VeganStylePersonalUse'}.jst5{font-size:20px}.jst6{font-family:'ArialMT'}</style><path class="jst0" d="M30.7 10.5c3.8-1.6 9.2-3.9 16.8-5.9C55.4 2.4 64.8-.1 77.1.7c3.8.2 11.1.7 19.7 3.9 2.7 1 7.4 3.3 16.8 7.9 6.4 3.1 9.1 4.6 13.8 5.9 4 1.1 7 1.5 10.9 2 .8.1 1.5.2 2.2.2 2.1.2 3.7.3 4.3.3 9.4.5 14.8.8 19.2 1.4 2.9.4 8.8 1.2 15.8 3.9 8.2 3.2 14 7.6 13.8 7.9-.2.4-8.5-6-21.7-8.9-5.6-1.2-10.9-1.5-18.8-2 0 0-8.4-.5-17-1.6-.5-.1-1.5-.2-2.7-.4-4-.7-6.9-1.7-7.9-2-3.3-1.1-4.9-2-10.9-4.9-7.2-3.6-10.9-5.4-14.8-6.9-1.6-.6-4.9-1.9-8.9-3-14.2-3.8-26-2.3-28.6-2-4 .6-6.9 1.4-12.8 3-9.4 2.6-16.2 5.3-17.8 5.9-4 1.6-7.6 3.4-14.8 6.9-8.7 4.3-11.8 6-11.8 5.9-.2 0 10.6-7.3 25.6-13.6z"/><path class="jst0" d="M125.4 20.4c-.1-.5-12.8 1.7-32.6 2-9.8.1-8.2-.4-38.5-1 0 0-16.3-.3-35.9 4.4-.4.1-1.6.4-1.6.5.1.4 10.2-1.1 18.8-2 11.1-1.1 19.1-1 29.6-1 19.3.1 19.3 1.5 31.6 1 15.9-.6 28.7-3.5 28.6-3.9z"/><path class="jst0" d="M114.5 20.4c.1-.1-5.3-5.3-12.2-8.9-20.2-10.6-43.8-2.9-52.5 0-11.3 3.7-19.7 8.8-19.7 8.9 0 .1 8.2-4.3 19.7-7.9 9.7-3.1 19.3-6 31.9-4.9 3.6.3 11 1 19.7 4.9 7.6 3.4 13.1 8 13.1 7.9zM3 26.4c.3.2-1.8 3.1-1 4 .4.5 2 0 5-1 1.3-.4 2.4-.8 4-1 .9-.1 1.9-.2 2 0 .1.3-2.3.8-10 3-.6.2-1.5.4-2 0-.7-.7.2-2.8 1-4 .4-.5.9-1.1 1-1z"/><path class="jst2" d="M21 14.4c.3-1.1-3.3-3.3-7-4-2.7-.5-5-.3-5 0-.1.5 4.3.7 5 3 .2.6.1 1.4 0 2-.3 1.9-1.3 2.7-1 3 .4.4 2.3-1.6 6-3 1.4-.5 1.9-.6 2-1z"/><text transform="matrix(1.6443 0 0 1 4.5 49.195)" class="jst3 jst4 jst5">Food</text><text transform="matrix(1.6443 0 0 1 79.15 49.195)" class="jst3 jst6 jst5">-</text><text transform="matrix(1.6443 0 0 1 89.18 49.195)" class="jst3 jst4 jst5">courier</text></symbol><symbol viewBox="0 -38 512 511" id="meat" xmlns="http://www.w3.org/2000/svg"><path d="M450.773 70.637c-36.035-31.551-87.046-53.86-143.648-62.813-50.188-7.941-102.043-9.484-146.016-4.34C112.58 9.16 74.625 22.668 51.355 42.547a94.55 94.55 0 0 0-3.562 3.207C16.039 70.527-.484 99.114.012 128.449c.43 25.528 8.398 45.168 24.367 60.043 13.992 13.035 32.25 21.059 51.582 29.551 23.996 10.543 48.809 21.441 68.348 43.05 19.996 22.114 26.511 44.286 32.808 65.731 5.313 18.07 10.801 36.762 24.188 54.125 14.96 19.41 37.418 34.465 70.672 47.375 12.996 5.047 27.347 7.528 42.257 7.528 23.579 0 48.555-6.211 71.739-18.325 31.156-16.285 74.418-50.87 103.859-123.136C504.062 265.676 512 233.645 512 201.758c0-50.707-21.172-96.047-61.227-131.121zM378.91 404.023c-34.008 17.778-71.922 21.551-101.418 10.098-66.418-25.785-75.379-56.281-85.754-91.594-6.468-22.011-13.797-46.957-36.133-71.652-21.726-24.027-49.242-36.117-73.52-46.781-36.901-16.215-66.05-29.02-66.843-75.903-.203-12.082 3.23-23.191 8.645-33.16a79.763 79.763 0 0 0-.164 4.856c0 27.457 8.125 48.133 24.836 63.215 14.644 13.214 33.773 20.664 54.023 28.546 24.734 9.63 50.309 19.586 69.676 41.004 19.441 21.5 25.687 45.016 31.722 67.758 5.465 20.574 10.622 40.008 24.692 56.922 15.726 18.91 39.8 31.082 75.762 38.309 10.457 2.101 20.91 3.14 31.27 3.14 29.855 0 58.917-8.633 84.917-25.3-14.73 14.343-29.27 24.039-41.71 30.542zm97.742-117.285a8.07 8.07 0 0 0-.675 1.29c-.086.218-.18.425-.266.64-11.86 23.59-28.316 44.707-48.316 61.086-20.055 16.426-50.832 33.89-91.02 33.89-9.16 0-18.816-.91-28.938-2.94-70.113-14.095-78.328-45.032-88.726-84.204-6.203-23.355-13.23-49.828-35.149-74.066-21.785-24.09-50.296-35.192-75.453-44.985-38.632-15.043-69.148-26.922-69.148-77.562 0-17.727 7.5-33.121 22.293-45.754C90.379 29.25 147.762 15.68 215.758 15.68c28.25 0 58.34 2.343 88.988 7.191 53.793 8.512 102.09 29.547 135.988 59.227 36.657 32.097 56.028 73.476 56.028 119.66 0 29.242-7.2 58.597-20.11 84.98zm0 0"/><path d="M467.59 210.133c-4.207-.344-7.88 2.762-8.23 6.953-3.133 37.187-21.708 74.562-48.883 98.941-9.965-7.902-13.88-20.648-19.891-40.261-5.004-16.34-11.234-36.676-23.367-61.524-11.574-23.71-33.082-43.82-55.344-59.66 16.828-9.812 57.5-28.281 121.617-25.402 12.387 16.254 20.785 34.675 24.348 54.18a7.619 7.619 0 1 0 14.988-2.743c-4.195-22.957-14.32-44.535-29.27-63.3a7.023 7.023 0 0 0-.343-.438c-13.485-16.805-30.848-31.332-51.313-42.543-37.734-20.676-84.5-32.5-147.175-37.219-59.243-4.465-107.332 1.988-147.02 19.715-18.516 8.27-30.934 19.648-36.02 32.727l-.117.308c-1.265 3.344-2.066 6.793-2.355 10.336-1.223 14.926 7.183 30.77 21.941 41.34 8.11 5.812 17.16 9.633 24.14 12.309 3.927 1.511 8.333-.454 9.84-4.383a7.612 7.612 0 0 0-4.382-9.84c-6.508-2.5-14.063-5.695-20.723-10.473-8.172-5.855-16.57-16.21-15.629-27.71.043-.505.11-1.044.2-1.606 35.75-.684 76.359 6.387 95.613 10.242-.035.664-.05 1.336-.05 2.008 0 21.445 17.448 38.894 38.894 38.894 13.84 0 26.007-7.27 32.902-18.187 25.383 11.262 89.723 43.39 111.566 88.129 11.606 23.773 17.641 43.472 22.489 59.3 6.011 19.618 10.664 34.797 22.234 45.438-18.355 12.559-40.64 20.152-62.54 21.102-16.226.703-31.483-2.082-45.347-8.274-10.664-4.765-18.675-10.793-23.816-17.922-6.07-8.422-8.8-19.02-11.692-30.238l-.425-1.656c-6.606-25.535-14.914-52.32-30.88-75.223-17.284-24.789-43.988-45.285-79.374-60.918a7.613 7.613 0 0 0-10.047 3.89 7.618 7.618 0 0 0 3.89 10.048c32.793 14.488 57.364 33.226 73.032 55.695 14.59 20.926 22.379 46.168 28.625 70.324l.426 1.645c3.113 12.09 6.335 24.593 14.09 35.343 6.73 9.336 16.808 17.047 29.956 22.922 14.434 6.45 30.106 9.707 46.664 9.707 1.84 0 3.696-.043 5.56-.12 28.718-1.247 56.858-12.016 79.28-30.325a.68.68 0 0 0 .055-.047l.184-.144c33.047-27.118 54.968-69.399 58.648-113.11a7.615 7.615 0 0 0-6.95-8.23zm-234.942-96.317c-.62 4.371-.789 7.121-4.437 12.141-4.305 5.926-11.281 9.793-19.152 9.793-12.961 0-23.516-10.477-23.653-23.406.492-8.031 3.403-12.473 3.403-12.473 4.148-6.851 11.671-11.441 20.25-11.441 13.046 0 23.66 10.617 23.66 23.66a25.2 25.2 0 0 1-.07 1.726zm14.77 4.688c.348-2.09.535-4.23.535-6.414 0-21.45-17.45-38.899-38.894-38.899-15.43 0-28.79 9.032-35.07 22.082-18.071-3.668-55.466-10.308-91.094-10.703 4.425-4.586 11.074-9.382 21.027-13.828 37.32-16.668 83.004-22.695 139.66-18.433 60.434 4.55 105.238 15.796 140.996 35.39 13.242 7.254 25.043 16.016 35.16 25.934-68.39.023-108.718 22.793-121.773 31.617-20.07-12.695-39.184-21.777-50.547-26.746zm0 0"/></symbol><symbol id="menu" viewBox="0 0 35.8 31.2" xmlns="http://www.w3.org/2000/svg"><style>.lst0{fill:#ff9f0f}</style><path class="lst0" d="M17.9 31.2L0 26.9V0l17.9 4.3zm0-26.9L35.8 0v26.9l-17.9 4.3V4.3zM19 29.7l15.7-3.9V1.5L19 5.4v24.3z"/><path class="lst0" d="M31.4 7.3l-9.6 2.4c-.5.1-.8.6-.7 1.1.1.5.6.8 1.1.7L31.9 9c.5-.1.8-.6.7-1.1-.2-.4-.7-.7-1.2-.6zm0 6.2l-9.6 2.4c-.5.1-.8.6-.7 1.1.1.5.6.8 1.1.7l9.6-2.4c.5-.1.8-.6.7-1.1-.1-.5-.6-.8-1.1-.7zm0 6.3l-9.6 2.4c-.5.1-.8.6-.7 1.1.1.5.6.8 1.1.7l9.6-2.4c.5-.1.8-.6.7-1.1-.1-.5-.6-.8-1.1-.7z"/></symbol><symbol viewBox="0 0 511 511" id="money" xmlns="http://www.w3.org/2000/svg"><path d="M237.5 196.1c-47 0-85.2 38.1-85.2 85.2 0 47 38.1 85.2 85.2 85.2 47 0 85.2-38.1 85.2-85.2-.1-47.1-38.2-85.2-85.2-85.2zm0 153.3c-37.6 0-68.1-30.5-68.1-68.1 0-37.6 30.5-68.1 68.1-68.1 37.6 0 68.1 30.5 68.1 68.1 0 37.6-30.5 68-68.1 68.1z"/><path d="M502 111.2c-5-3.2-11.3-3.5-16.6-.9-27 12.2-56.5 18.3-86.1 17.6-34.1 0-84.6-13.5-133.5-26.5-47.3-12.6-92-24.6-122-24.6-35.2.1-69.9 8.3-101.4 24-5.7 2.9-9.3 8.7-9.3 15.1v25.4c-8.5 3-16.8 6.5-24.9 10.6-5.7 2.9-9.2 8.8-9.2 15.2v218.6c0 9.4 7.6 17 17 17 2.6 0 5.2-.6 7.6-1.8 27-12.3 56.4-18.3 86.1-17.6 34.1 0 84.6 13.5 133.5 26.5 47.3 12.6 92 24.6 122 24.6 35.2-.1 70-8.3 101.5-24 5.7-2.9 9.2-8.8 9.2-15.1v-25.4c8.5-3 16.7-6.5 24.8-10.6 5.7-2.9 9.3-8.7 9.3-15.1V125.6c0-5.8-3-11.3-8-14.4zM365.2 417.5c-27.7 0-71.4-11.6-117.5-24-50-13.3-101.6-27.1-138-27.1-32.3-.8-64.3 5.8-93.7 19.3V167.1c29.1-14.5 61.2-22.1 93.7-22.1 27.7 0 71.4 11.6 117.6 24 49.9 13.3 101.6 27.1 137.9 27.1 32.3.8 64.3-5.8 93.7-19.3l.1 186.5v32.2c-29.2 14.4-61.2 21.9-93.8 22zm110.7-65.6V176.7c0-5.9-3-11.3-8-14.4-5-3.1-11.3-3.5-16.6-.9-27 12.3-56.4 18.3-86.1 17.6-34.1 0-84.6-13.5-133.5-26.5-47.3-12.6-92-24.6-122-24.6-20.1 0-40.2 2.8-59.6 8.1v-20c29.1-14.5 61.2-22.1 93.7-22.1 27.7 0 71.4 11.6 117.6 24C311.3 131.2 363 145 399.3 145c32.3.8 64.3-5.8 93.7-19.3v218.6c-5.6 2.8-11.3 5.4-17.1 7.6z"/></symbol><symbol viewBox="0 0 58.393 58.393" id="pizza" xmlns="http://www.w3.org/2000/svg"><circle cx="36.504" cy="21.827" r="1"/><circle cx="41.722" cy="19.179" r="1"/><circle cx="40.41" cy="21.695" r="1"/><circle cx="14.256" cy="17.06" r="1"/><circle cx="20.088" cy="15.736" r="1"/><circle cx="16.865" cy="14.736" r="1"/><circle cx="12.006" cy="33.124" r="1"/><circle cx="15.256" cy="30.8" r="1"/><circle cx="16.865" cy="32.8" r="1"/><path d="M26.184 11.787a.7.7 0 0 1 .53.087.562.562 0 0 1 .259.358c.289 1.4 1.701 2.294 3.153 2.001a.704.704 0 0 1 .53.087.562.562 0 0 1 .259.358 2.534 2.534 0 0 0 1.163 1.653c.43.267.921.404 1.423.404.188 0 .378-.019.566-.058a1 1 0 1 0-.406-1.959.717.717 0 0 1-.53-.087.558.558 0 0 1-.258-.358 2.536 2.536 0 0 0-1.164-1.653 2.703 2.703 0 0 0-1.989-.347c-.37.079-.724-.124-.79-.446a2.536 2.536 0 0 0-1.164-1.653 2.711 2.711 0 0 0-1.99-.347A1 1 0 0 0 25 11.01c.113.54.638.887 1.184.777zm3.956 14.155c-.552.012-.99.47-.979 1.021.003.116-.064.192-.112.193-1.166.026-2.093 1.028-2.067 2.235.003.116-.064.192-.112.193a2.07 2.07 0 0 0-1.504.697 2.22 2.22 0 0 0-.563 1.539 1 1 0 0 0 .999.978h.023a1 1 0 0 0 .977-1.022c-.001-.074.038-.19.112-.191 1.166-.026 2.094-1.029 2.068-2.236-.003-.116.064-.191.111-.192 1.166-.026 2.094-1.029 2.068-2.236-.012-.552-.442-.949-1.021-.979zm-7.164-3.65c-.152.345-.521.517-.821.385a2.536 2.536 0 0 0-2.021-.011 2.715 2.715 0 0 0-1.436 1.421.999.999 0 1 0 1.831.804.728.728 0 0 1 .378-.382.566.566 0 0 1 .442-.003c1.31.579 2.861-.055 3.458-1.409a.728.728 0 0 1 .378-.382.566.566 0 0 1 .442-.003 2.536 2.536 0 0 0 2.021.011 2.715 2.715 0 0 0 1.436-1.421.999.999 0 1 0-1.831-.804.728.728 0 0 1-.378.382.57.57 0 0 1-.442.003 2.538 2.538 0 0 0-2.022-.011 2.708 2.708 0 0 0-1.435 1.42z"/><path d="M57.51 18.848c-.007-.019-.022-.031-.03-.05a18.919 18.919 0 0 0-1.059-3.111c-.014-.047-.042-.089-.063-.135-2.29-5.026-6.57-8.22-11.735-10.163-.032-.016-.055-.042-.09-.055-.024-.008-.048-.004-.072-.01-2.205-.815-4.566-1.407-6.995-1.823-.006-.002-.009-.007-.015-.009a.977.977 0 0 0-.394-.054c-4.991-.812-10.241-.896-15.019-.647-.013 0-.023-.007-.036-.007-.021 0-.039.011-.061.012-4.286.227-8.185.715-11.145 1.18a5.638 5.638 0 0 0-4.743 5.036v.003c-.005.052-.02.099-.024.15L4.527 28.361c-1.821 1.161-5.663 4.307-4.204 9.463.515 1.818 1.356 2.887 2.501 3.174.209.053.55.227.5.545-.386 2.448-1.042 6.965-1.091 9.713-.024 1.323.411 2.433 1.258 3.207 1.2 1.098 2.888 1.262 3.782 1.262.314 0 .531-.021.594-.027.353-.023 3.474-.291 4.504-2.447.627-1.312.297-2.912-.972-4.751l16.396-6.647.01.004c.195.103.404.184.62.25.034.011.065.028.1.038.25.069.512.115.787.134.228.014.452.014.672.004.049-.002.098-.009.148-.012.187-.013.37-.034.549-.065l.135-.025c.211-.041.416-.094.613-.159l.04-.012c.731-.248 1.364-.653 1.838-1.207a4.096 4.096 0 0 0 .475-.711c.132-.242.242-.503.331-.78l.01-.024 18.779-7.615c.125-.042 3.097-1.074 4.619-4.198 1.166-2.391 1.162-5.292-.011-8.627zm-2.506 2.045a32.894 32.894 0 0 0-1.135-2.25l1.184-1.013c.284.787.522 1.615.698 2.495.176.879.024 1.76-.376 2.504a3.895 3.895 0 0 0-.371-1.736zm-.785-5.18l-1.398 1.196a21.287 21.287 0 0 0-2.599-3.226l1.218-1.768a15.484 15.484 0 0 1 2.779 3.798zM44.111 9.435l.669-1.846c1.893.791 3.633 1.774 5.156 2.982l-1.201 1.744c-1.308-1.08-2.837-2.048-4.624-2.88zM37.2 7.252l.586-1.681a37.22 37.22 0 0 1 5.123 1.311l-.643 1.775c-1.509-.564-3.195-1.034-5.066-1.405zm-7.197-.838V4.721c1.935.084 3.876.25 5.78.521l-.581 1.668a52.858 52.858 0 0 0-5.199-.496zM26.78 4.651c.406 0 .814.003 1.223.01v1.687a80.84 80.84 0 0 0-5 .077V4.742a84.94 84.94 0 0 1 3.777-.091zM15.003 7.087V5.412c1.837-.224 3.859-.423 6-.562v1.681c-1.888.123-3.891.31-6 .556zm-3.895-1.134a114.54 114.54 0 0 1 1.895-.28v1.656c-1.484.195-3.04.429-4.635.686a3.64 3.64 0 0 1 2.74-2.062zm-.54 46.432c-.447.941-2.243 1.274-2.875 1.32-.479.055-2.034.031-2.853-.718-.422-.387-.622-.941-.607-1.695.047-2.627.688-7.04 1.067-9.437.202-1.281-.634-2.457-1.988-2.797-.378-.095-.775-.76-1.063-1.779-1.171-4.138 2.22-6.596 3.732-7.461l.459-.263 1.522-19.45c5.287-.874 9.931-1.409 14.01-1.651.011 0 .02.006.031.006.018 0 .033-.009.051-.01 5.398-.316 9.812-.124 13.451.452.019.008.031.023.051.03.109.038.22.056.329.056.032 0 .062-.011.094-.015 2.441.416 4.515 1.012 6.305 1.741.076.056.151.115.245.149.067.024.135.026.203.035 2.203.951 3.947 2.115 5.365 3.414.07.11.162.208.276.287.023.016.048.021.072.035 2.218 2.143 3.61 4.619 4.74 7.09.883 1.929-1.665 3.369-1.956 3.525L32.275 33.13l-.123.487a3.594 3.594 0 0 0-.013 1.654c.267 1.182.326 2.176.189 2.957l-.023.113c-.177.847-.6 1.343-1.114 1.624-.505.264-1.073.32-1.465.321-.094-.001-.188 0-.279-.007a1.84 1.84 0 0 1-.482-.097l-.042-.015a1.458 1.458 0 0 1-.397-.222l-.07-.056c-.057-.052-.114-.103-.165-.166-.581-.715-.7-2.093-.564-3.069l.24-1.732L11.7 41.686c-1.863.724-2.96 1.707-3.353 3.006-.417 1.381.027 2.976 1.36 4.873.6.853 1.234 2.033.861 2.82zm-.305-7.113c.2-.662.928-1.241 2.185-1.729l13.254-5.511c.052.706.21 1.527.595 2.269L10.42 46.738c-.216-.574-.278-1.068-.157-1.466zm45.474-18.703c-1.142 2.372-3.455 3.199-3.529 3.227L34.389 37.02a11.928 11.928 0 0 0-.297-2.187 1.644 1.644 0 0 1-.039-.274l20.274-8.429a5.586 5.586 0 0 0 1.961-1.396 6.483 6.483 0 0 1-.551 1.835z"/><path d="M14.046 36.921c4.228 0 7.667-2.738 7.667-6.104 0-2.046-1.002-2.958-1.844-3.363-.936-.45-1.988-.45-2.823-.45-1.573 0-9.667 2.023-9.667 5.813 0 4.104 3.09 4.104 6.667 4.104zm3.008-7.917h.012c.632 0 1.414.002 1.936.253.213.103.711.342.711 1.561 0 2.225-2.595 4.104-5.667 4.104-4.667 0-4.667-.445-4.667-2.104 0-1.78 6.132-3.814 7.675-3.814zm-.689-8.309c4.228 0 7.667-2.738 7.667-6.104 0-2.046-1.002-2.958-1.844-3.363-.932-.448-2.012-.45-2.812-.45h-.011c-1.573 0-9.667 2.023-9.667 5.813 0 4.104 3.09 4.104 6.667 4.104zm3.008-7.917h.012c.632 0 1.414.002 1.936.253.213.103.711.342.711 1.561 0 2.225-2.595 4.104-5.667 4.104-4.667 0-4.667-.445-4.667-2.104 0-1.78 6.132-3.814 7.675-3.814zm12.63 8.773c0 4.103 3.089 4.103 6.667 4.103 4.228 0 7.667-2.737 7.667-6.103 0-2.047-1.003-2.959-1.844-3.363-.933-.449-2.013-.451-2.812-.451h-.011c-1.574-.001-9.667 2.023-9.667 5.814zm9.673-3.815h.012c.632 0 1.415.002 1.938.253.213.103.711.343.711 1.562 0 2.224-2.595 4.103-5.667 4.103-4.667 0-4.667-.445-4.667-2.103 0-1.781 6.132-3.815 7.673-3.815z"/></symbol><symbol viewBox="0 0 35 35" id="raiting" xmlns="http://www.w3.org/2000/svg"><defs><style>.ocls-1{fill:#fff;stroke:#707070}.ocls-2{clip-path:url(#oclip-path)}</style><clipPath id="oclip-path"><path id="oRectangle_37" data-name="Rectangle 37" class="ocls-1" transform="translate(280 696)" d="M0 0h35v35H0z"/></clipPath></defs><g id="oMask_Group_1" data-name="Mask Group 1" class="ocls-2" transform="translate(-280 -696)"><g id="orating" transform="translate(280 696)"><g id="oGroup_2" data-name="Group 2"><g id="oGroup_1" data-name="Group 1"><path id="oPath_6" data-name="Path 6" d="M10.284 21.328a1.044 1.044 0 0 1 1.4.438l1.93 3.575a.684.684 0 0 0 1.285-.325V19.8a.684.684 0 0 0-1.367 0v2.515l-.645-1.195a2.417 2.417 0 0 0-4.476 1.715l1.248 5.185a9.363 9.363 0 0 0 1.55 3.345l2.452 3.355a.684.684 0 1 0 1.1-.807l-2.452-3.355a8 8 0 0 1-1.321-2.858l-1.251-5.188a1.046 1.046 0 0 1 .547-1.184z"/></g></g><g id="oGroup_4" data-name="Group 4"><g id="oGroup_3" data-name="Group 3"><path id="oPath_7" data-name="Path 7" d="M25.719 18.415a2.313 2.313 0 0 0-1.119.285 2.325 2.325 0 0 0-3.345-1.178 2.324 2.324 0 0 0-3.076-1.151V13.1a2.327 2.327 0 1 0-4.655 0v1.185a.684.684 0 0 0 1.367 0V13.1a.96.96 0 0 1 1.92 0v9.646a.684.684 0 1 0 1.367 0V18.49a.96.96 0 0 1 1.92 0v4.259a.684.684 0 0 0 1.367 0v-3.218a.96.96 0 1 1 1.92 0v3.217a.684.684 0 1 0 1.367 0v-2.006a.96.96 0 1 1 1.92 0v5.768a15.111 15.111 0 0 1-.693 4.527l-.964 3.075a.684.684 0 1 0 1.3.409l.964-3.075a16.477 16.477 0 0 0 .756-4.936v-5.768a2.33 2.33 0 0 0-2.316-2.327z"/></g></g><g id="oGroup_6" data-name="Group 6"><g id="oGroup_5" data-name="Group 5"><path id="oPath_8" data-name="Path 8" d="M34.943 3.625a1.144 1.144 0 0 0-.929-.783l-2.094-.3-.937-1.9A1.144 1.144 0 0 0 29.951 0a1.144 1.144 0 0 0-1.032.642l-.936 1.9-2.094.3a1.151 1.151 0 0 0-.637 1.963l1.515 1.476-.357 2.088a1.149 1.149 0 0 0 1.67 1.213l1.873-.982 1.873.984A1.151 1.151 0 0 0 33.5 8.367l-.358-2.085 1.51-1.482a1.144 1.144 0 0 0 .291-1.175zM32.1 5.383a1.15 1.15 0 0 0-.33 1.017l.3 1.765-1.586-.833a1.15 1.15 0 0 0-1.071 0l-1.585.834.3-1.766a1.151 1.151 0 0 0-.328-1.016l-1.28-1.25 1.773-.258a1.151 1.151 0 0 0 .866-.63l.792-1.606.793 1.606a1.151 1.151 0 0 0 .867.629l1.773.257z"/></g></g><g id="oGroup_8" data-name="Group 8"><g id="oGroup_7" data-name="Group 7"><path id="oPath_9" data-name="Path 9" d="M22.491 3.625a1.144 1.144 0 0 0-.929-.783l-2.094-.3-.937-1.9A1.144 1.144 0 0 0 17.5 0a1.144 1.144 0 0 0-1.032.642l-.936 1.9-2.094.3a1.151 1.151 0 0 0-.638 1.965l1.515 1.476-.357 2.085a1.149 1.149 0 0 0 1.67 1.213L17.5 8.6l1.873.984a1.151 1.151 0 0 0 1.669-1.214l-.358-2.085L22.2 4.8a1.144 1.144 0 0 0 .291-1.175zm-2.842 1.758a1.15 1.15 0 0 0-.33 1.017l.3 1.765-1.586-.833a1.15 1.15 0 0 0-1.071 0l-1.585.834.3-1.766a1.151 1.151 0 0 0-.331-1.018l-1.283-1.25 1.772-.258a1.151 1.151 0 0 0 .866-.63L17.5 1.64l.793 1.606a1.151 1.151 0 0 0 .867.629l1.773.257z"/></g></g><g id="oGroup_10" data-name="Group 10"><g id="oGroup_9" data-name="Group 9"><path id="oPath_10" data-name="Path 10" d="M10.039 3.625a1.144 1.144 0 0 0-.929-.783l-2.094-.3L6.079.641A1.144 1.144 0 0 0 5.048 0a1.144 1.144 0 0 0-1.033.642l-.936 1.9-2.094.3a1.151 1.151 0 0 0-.636 1.965l1.515 1.477-.357 2.085a1.149 1.149 0 0 0 1.67 1.213L5.05 8.6l1.873.984a1.151 1.151 0 0 0 1.669-1.217l-.358-2.085L9.748 4.8a1.144 1.144 0 0 0 .291-1.175zM7.2 5.383A1.15 1.15 0 0 0 6.867 6.4l.3 1.765-1.582-.831a1.15 1.15 0 0 0-1.071 0l-1.585.834.3-1.765A1.151 1.151 0 0 0 2.9 5.384l-1.283-1.25 1.772-.258a1.151 1.151 0 0 0 .866-.63l.793-1.606.793 1.606a1.151 1.151 0 0 0 .867.629l1.773.257z"/></g></g><g id="oGroup_12" data-name="Group 12"><g id="oGroup_11" data-name="Group 11"><path id="oPath_11" data-name="Path 11" d="M14.7 16.62a.683.683 0 1 0 .2.483.688.688 0 0 0-.2-.483z"/></g></g></g></g></symbol><symbol viewBox="0 0 480 480" id="salad" xmlns="http://www.w3.org/2000/svg"><path d="M451.68 264A47.999 47.999 0 0 0 464 232c0-26.51-21.49-48-48-48h-2.16A55.44 55.44 0 0 0 424 152c0-30.928-25.072-56-56-56a54.718 54.718 0 0 0-25.52 6.24c4.88-3.76 12.56-10.56 7.52-19.6-5.04-9.04-16.64-7.28-22.56-5.76a20.158 20.158 0 0 1-8 1.04 20.293 20.293 0 0 1 0-5.36 20.24 20.24 0 0 0-6.16-19.68 20.322 20.322 0 0 0-20.56-1.04 14.239 14.239 0 0 1-5.36 1.28c-.005-1.727.21-3.447.64-5.12a20.08 20.08 0 0 0-6.16-19.6 20 20 0 0 0-20.48-1.12 15.046 15.046 0 0 1-5.28 1.36 25.684 25.684 0 0 1-1.6-8.72C253.92 13.28 252.8 0 240 0s-13.92 13.36-14.48 19.76a21.356 21.356 0 0 1-1.52 8.72 18.077 18.077 0 0 1-5.12-1.36 20.322 20.322 0 0 0-20.56 1.04A20.16 20.16 0 0 0 192 48a13.612 13.612 0 0 1 0 5.52 16.815 16.815 0 0 1-5.12-1.36 20.322 20.322 0 0 0-20.56 1.04A20.161 20.161 0 0 0 160 72.56a15.298 15.298 0 0 1 0 5.44 21.985 21.985 0 0 1-7.44-1.12c-5.92-1.44-17.04-4.24-22.56 5.76a11.44 11.44 0 0 0 0 11.76A94.89 94.89 0 0 0 96 88H0v96a96.002 96.002 0 0 0 43.04 80H0v8c.018 87.914 64.907 162.332 152 174.32V480h176v-33.68c87.093-11.988 151.982-86.406 152-174.32v-8h-28.32zM416 200c17.673 0 32 14.327 32 32s-14.327 32-32 32c-17.673 0-32-14.327-32-32s14.327-32 32-32zm-48-88c22.091 0 40 17.909 40 40s-17.909 40-40 40-40-17.909-40-40 17.909-40 40-40zm4 139.12a48.728 48.728 0 0 0 8 12.88h-16.32a48.701 48.701 0 0 0 8.32-12.88zm-2.56-43.2h5.36a48.937 48.937 0 0 0-2.8 4.96 41.584 41.584 0 0 0-2.56-4.96zM360 232c0 17.673-14.327 32-32 32-17.673 0-32-14.327-32-32s14.327-32 32-32c17.673 0 32 14.327 32 32zM169.68 90.64a20.08 20.08 0 0 0 6.32-19.6 13.683 13.683 0 0 1 0-5.52c1.772.205 3.501.691 5.12 1.44a20.322 20.322 0 0 0 20.56-1.04A20.4 20.4 0 0 0 208 46.24a12.393 12.393 0 0 1 0-5.52c1.791.242 3.54.726 5.2 1.44a20 20 0 0 0 20.48-1.12 18.004 18.004 0 0 0 6.32-9.76 18.083 18.083 0 0 0 6.16 9.76 20.322 20.322 0 0 0 20.56 1.04 12.398 12.398 0 0 1 5.28-1.2 20.208 20.208 0 0 1 0 5.36 20.159 20.159 0 0 0 6.16 19.6 20.159 20.159 0 0 0 20.48 1.04 13.199 13.199 0 0 1 5.44-1.2 17.328 17.328 0 0 1 0 5.36 20.32 20.32 0 0 0 6.16 19.6A20.48 20.48 0 0 0 328 93.2a18 18 0 0 0-8 13.68 13.52 13.52 0 0 0 4.4 10.08c-15.587 19.384-16.404 46.762-2 67.04a48 48 0 0 0-37.6 26.96 16 16 0 0 0-6.56 2.8 20.4 20.4 0 0 0-6.24 20 12.393 12.393 0 0 1 0 5.52 19.903 19.903 0 0 1-5.2-1.44 20 20 0 0 0-20.48 1.12 18.004 18.004 0 0 0-6.32 9.76 18.083 18.083 0 0 0-6.16-9.76 20.322 20.322 0 0 0-20.56-1.04 12.39 12.39 0 0 1-5.36 1.2 20.208 20.208 0 0 1 0-5.36 20.159 20.159 0 0 0-6.16-19.6 16.4 16.4 0 0 0-9.76-3.36V184a93.033 93.033 0 0 0-3.12-24L232 203.28V216a8 8 0 0 0 16 0v-12.72l45.68-45.6a8.033 8.033 0 1 0-11.36-11.36L248 180.72v-25.44l37.68-37.6a8.033 8.033 0 1 0-11.36-11.36L248 132.72v-25.44l21.68-21.6a8.033 8.033 0 1 0-11.36-11.36L248 84.72V64a8 8 0 0 0-16 0v20.72l-10.32-10.4a8.033 8.033 0 1 0-11.36 11.36l21.68 21.6v25.44l-26.32-26.4a8.033 8.033 0 1 0-11.36 11.36l37.68 37.6v25.44l-34.32-34.4a8 8 0 0 0-11.314-.046l-.046.046c-.5.616-.93 1.287-1.28 2a95.113 95.113 0 0 0-26-36.32c.621-1.553.946-3.208.96-4.88a18.319 18.319 0 0 0-8-13.92 20.24 20.24 0 0 0 17.68-2.56zM256 251.52a16 16 0 0 1 5.12 1.36 20.32 20.32 0 0 0 20.72-1.04l1.76-1.68a47.147 47.147 0 0 0 8.72 13.84h-38.24c0-1.36 0-2.64.4-3.76a21.356 21.356 0 0 1 1.52-8.72zm-57.76.32a20 20 0 0 0 20.48 1.12 15.046 15.046 0 0 1 5.28-1.36 25.684 25.684 0 0 1 1.6 8.72c0 1.04 0 2.32.4 3.68h-34v-23.52a16.003 16.003 0 0 0 6.24 11.36zM192 232v-5.12c.216 1.7.216 3.42 0 5.12zM16 184v-80h80c44.183 0 80 35.817 80 80v80H96c-44.183 0-80-35.817-80-80zm296 280H168v-16h144v16zm-8-32H176c-85.333.107-155.733-66.773-160-152h448c-4.267 85.227-74.667 152.107-160 152z"/><path d="M149.84 234.16l-104-111.6a8 8 0 1 0-11.68 10.881l104 112a8 8 0 0 0 11.28 0 8.001 8.001 0 0 0 .4-11.281zM48 176H32a8 8 0 0 0 0 16h16a8 8 0 0 0 0-16zm48-64a8 8 0 0 0-8 8v16a8 8 0 0 0 16 0v-16a8 8 0 0 0-8-8zm32 40a8 8 0 0 0-8 8v16a8 8 0 0 0 16 0v-16a8 8 0 0 0-8-8zm-48 64H64a8 8 0 0 0 0 16h16a8 8 0 0 0 0-16z"/></symbol><symbol viewBox="0 0 480 480" id="soup" xmlns="http://www.w3.org/2000/svg"><path d="M472 192.124H8a8 8 0 0 0-8 8c0 101.664 51.96 185.952 136 221.384v26.616a8 8 0 0 0 8 8h192a8 8 0 0 0 8-8v-26.616c84.04-35.432 136-119.72 136-221.384a8 8 0 0 0-8-8zM333.08 408.676a8 8 0 0 0-5.08 7.448v24H152v-24a8 8 0 0 0-5.08-7.448C68.4 377.876 18.8 301.468 16.12 208.124h447.76c-2.68 93.344-52.28 169.752-130.8 200.552z"/><path d="M441.703 224.531a8 8 0 0 0-9.471 5.689l-2.304 9.224c-14.248 56.96-51.608 106.608-97.512 129.552A8 8 0 0 0 336 384.124a8 8 0 0 0 3.568-.8c49.96-24.984 90.536-78.624 105.88-140l2.304-9.232a8 8 0 0 0-6.049-9.561zM171.192 72.644a37.92 37.92 0 0 1-.488-29.272l3.464-8.096a8 8 0 1 0-14.696-6.305L156 37.068a53.482 53.482 0 0 0 .8 42.536 37.92 37.92 0 0 1 .488 29.272l-3.464 8.096a8 8 0 1 0 14.696 6.305l3.472-8.096a53.484 53.484 0 0 0-.8-42.537zm72 0a37.92 37.92 0 0 1-.488-29.272l3.464-8.096a8 8 0 1 0-14.696-6.305L228 37.068a53.482 53.482 0 0 0 .8 42.536 37.92 37.92 0 0 1 .488 29.272l-3.464 8.096a8 8 0 1 0 14.696 6.305l3.472-8.096a53.484 53.484 0 0 0-.8-42.537zm72 0a37.92 37.92 0 0 1-.488-29.272l3.464-8.096a8.001 8.001 0 1 0-14.696-6.305L300 37.068a53.482 53.482 0 0 0 .8 42.536 37.92 37.92 0 0 1 .488 29.272l-3.464 8.096a8 8 0 1 0 14.696 6.305l3.472-8.096a53.484 53.484 0 0 0-.8-42.537z"/></symbol><symbol viewBox="0 0 512 512" id="stopwatch" xmlns="http://www.w3.org/2000/svg"><path d="M252.677 162.298c-81.496 0-147.797 66.301-147.797 147.797 0 81.495 66.301 147.796 147.797 147.796s147.797-66.301 147.797-147.796c0-81.495-66.301-147.797-147.797-147.797zm0 265.594c-64.954 0-117.797-52.843-117.797-117.796 0-64.954 52.843-117.797 117.797-117.797s117.797 52.843 117.797 117.797c0 64.952-52.843 117.796-117.797 117.796z"/><path d="M420.473 158.224l19.657 19.441 21.096-21.33-60.666-60-21.096 21.33 19.68 19.464-17.504 17.737c-22.805-18.978-49.84-33.034-79.463-40.528V85.693h18.13V0H185.049v85.693h18.13v28.645c-87.478 22.129-152.406 101.5-152.406 195.758C50.773 421.426 141.347 512 252.677 512s201.905-90.574 201.905-201.905c0-51.564-19.44-98.667-51.363-134.389l17.254-17.482zM215.049 30h75.257v25.693h-75.257V30zm57.127 55.693v23.443a203.36 203.36 0 0 0-19.499-.945c-6.578 0-13.08.327-19.499.945V85.693h38.998zm152.406 224.402c0 94.789-77.116 171.905-171.905 171.905S80.772 404.884 80.772 310.095 157.889 138.19 252.677 138.19s171.905 77.116 171.905 171.905z"/><path d="M237.679 222.19h30v87.91h-30z"/></symbol><symbol viewBox="0 0 297 297" id="sushi" xmlns="http://www.w3.org/2000/svg"><path d="M295.576 104.887c-2.743-4.387-8.524-5.721-12.911-2.979l-93.878 58.674v-33.117c0-11.222-7.816-21.269-22.114-28.595l80.122-58.756a9.37 9.37 0 0 0-11.082-15.112l-90.299 66.22c-10.853-2.64-22.996-4.045-35.562-4.045-19.863 0-38.685 3.502-52.994 9.863-16.729 7.434-25.939 18.238-25.939 30.424v47.722l-27.09 19.866a9.37 9.37 0 0 0 11.081 15.112l16.008-11.739v4.184c0 12.185 9.211 22.989 25.938 30.424 3.131 1.391 6.487 2.637 10.014 3.747l-31.549 19.719a9.37 9.37 0 0 0 9.931 15.89l48.466-30.291c5.252.521 10.65.797 16.134.797 19.863 0 38.684-3.503 52.996-9.862 16.727-7.435 25.938-18.239 25.938-30.424v-19.928L292.595 117.8c4.388-2.745 5.722-8.524 2.981-12.913zm-185.724 1.029c36.188 0 60.196 12.97 60.196 21.549 0 8.578-24.009 21.549-60.196 21.549s-60.196-12.971-60.196-21.549c0-8.58 24.009-21.549 60.196-21.549zm-60.196 96.691v-48.396a72.009 72.009 0 0 0 7.201 3.676c14.312 6.36 33.132 9.863 52.995 9.863s38.684-3.503 52.996-9.863a71.779 71.779 0 0 0 7.2-3.676v18.081l-80.632 50.396c-24.505-3.628-39.76-13.246-39.76-20.081zm120.392 0c0 7.452-18.125 18.214-46.606 20.912l46.606-29.129v8.217z"/><path d="M94.127 139.652c4.306.956 9.891 1.483 15.725 1.483 5.835 0 11.42-.527 15.725-1.483 10.75-2.389 13.008-7.946 13.008-12.187 0-4.242-2.257-9.8-13.008-12.189-4.305-.957-9.889-1.483-15.725-1.483-5.835 0-11.419.526-15.725 1.483-10.751 2.39-13.007 7.947-13.007 12.189 0 4.241 2.257 9.798 13.007 12.187z"/></symbol></svg>